<svg width="413" height="87" viewBox="0 0 413 87" fill="none" xmlns="http://www.w3.org/2000/svg">
<path d="M96.7712 45.8052H11.6399C9.85627 45.8052 8.39977 47.3176 8.56334 49.1029C10.4326 70.3085 30.1538 87.0001 54.2056 87.0001C78.2573 87.0001 97.9785 70.3163 99.8478 49.1029C100.004 47.3176 98.5549 45.8052 96.7712 45.8052Z" fill="#414141"/>
<path fill-rule="evenodd" clip-rule="evenodd" d="M0.611747 9.07264C4.86009 3.48196 12.5162 0 20.9516 0C29.387 0 37.0431 3.48196 41.2914 9.07264C42.2942 10.3922 42.0374 12.2748 40.7179 13.2776C39.3984 14.2803 37.5159 14.0235 36.5132 12.704C33.5999 8.87029 27.8691 6.00173 20.9516 6.00173C14.0341 6.00173 8.30324 8.87029 5.39003 12.704C4.3873 14.0235 2.50478 14.2803 1.1853 13.2776C-0.134186 12.2748 -0.390974 10.3922 0.611747 9.07264Z" fill="#414141"/>
<path fill-rule="evenodd" clip-rule="evenodd" d="M67.2953 9.07264C71.5437 3.48196 79.1998 0 87.6352 0C96.0642 0 103.718 3.4828 107.973 9.07014C108.977 10.3886 108.722 12.2715 107.404 13.2757C106.086 14.2798 104.203 14.025 103.199 12.7065C100.277 8.86946 94.5435 6.00173 87.6352 6.00173C80.7177 6.00173 74.9868 8.87029 72.0736 12.704C71.0709 14.0235 69.1884 14.2803 67.8689 13.2776C66.5494 12.2748 66.2926 10.3922 67.2953 9.07264Z" fill="#414141"/>
<path d="M157.652 49.3213C157.094 49.7352 156.429 50.0591 155.674 50.329C154.918 50.599 154.235 50.7249 153.606 50.7249C151.574 50.7249 149.829 50.0231 148.409 48.6375C146.988 47.2339 146.287 45.5243 146.287 43.5088C146.287 41.4754 146.988 39.7658 148.409 38.3622C149.829 36.9406 151.574 36.2388 153.606 36.2388C154.235 36.2388 154.936 36.3827 155.71 36.6526C156.483 36.9226 157.148 37.2825 157.742 37.7324C158.245 38.0923 158.821 38.0383 159.09 37.6604L161.824 33.6474C162.057 33.3055 161.95 32.7657 161.518 32.4598C160.457 31.686 159.18 31.0561 157.688 30.5703C156.195 30.0664 154.829 29.8145 153.606 29.8145C151.7 29.8145 149.883 30.1744 148.175 30.8942C146.467 31.596 145.01 32.5677 143.769 33.7914C142.547 34.9971 141.576 36.4547 140.856 38.1463C140.137 39.8378 139.777 41.6193 139.777 43.5088C139.777 45.3983 140.137 47.1799 140.856 48.8714C141.576 50.563 142.547 52.0206 143.769 53.2263C145.01 54.432 146.467 55.4037 148.175 56.1235C149.883 56.8253 151.7 57.1852 153.606 57.1852C154.865 57.1852 156.231 56.9513 157.706 56.4654C159.198 55.9795 160.421 55.3677 161.392 54.6299C161.842 54.324 162.039 53.7841 161.824 53.4422L159.144 49.3753C158.857 48.9614 158.209 48.9434 157.652 49.3213Z" fill="#414141"/>
<path d="M165.186 55.6736C165.186 56.2675 165.546 56.6094 166.139 56.6094H183.402C183.996 56.6094 184.374 56.2495 184.374 55.6736V51.7867C184.374 51.0489 183.87 50.563 183.061 50.563H171.642V46.0822H180.31C180.957 46.0822 181.353 45.7223 181.353 45.1284V41.7093C181.353 41.0795 180.957 40.7196 180.31 40.7196H171.642V36.3647H183.061C183.69 36.3647 184.014 36.0408 184.014 35.411V31.2721C184.014 30.6782 183.654 30.3183 183.061 30.3183H166.139C165.546 30.3183 165.186 30.6782 165.186 31.2721V55.6736Z" fill="#414141"/>
<path d="M204.442 42.6811C205.934 41.6913 206.869 39.8378 206.869 37.9123C206.869 35.5189 206.096 33.6474 204.568 32.3158C203.039 30.9841 200.899 30.3183 198.13 30.3183H188.689C188.222 30.3183 187.988 30.5523 187.988 31.0021V55.9256C187.988 56.3754 188.222 56.6094 188.689 56.6094H198.885C201.78 56.6094 204.028 55.9076 205.629 54.5219C207.247 53.1363 208.056 51.1928 208.056 48.6915C208.056 47.3778 207.733 46.1721 207.085 45.0744C206.438 43.9767 205.557 43.1849 204.442 42.6811ZM198.058 36.1668C199.479 36.1668 200.36 37.0126 200.36 38.3802C200.36 39.7478 199.479 40.6116 198.058 40.6116H194.516V36.1668H198.058ZM194.516 50.7609V45.4883H198.795C200.468 45.4883 201.529 46.4781 201.529 48.0796C201.529 49.7172 200.468 50.7609 198.795 50.7609H194.516Z" fill="#414141"/>
<path d="M211.293 55.6736C211.293 56.2675 211.653 56.6094 212.246 56.6094H229.509C230.103 56.6094 230.48 56.2495 230.48 55.6736V51.7867C230.48 51.0489 229.977 50.563 229.168 50.563H217.749V46.0822H226.416C227.064 46.0822 227.459 45.7223 227.459 45.1284V41.7093C227.459 41.0795 227.064 40.7196 226.416 40.7196H217.749V36.3647H229.168C229.797 36.3647 230.121 36.0408 230.121 35.411V31.2721C230.121 30.6782 229.761 30.3183 229.168 30.3183H212.246C211.653 30.3183 211.293 30.6782 211.293 31.2721V55.6736Z" fill="#414141"/>
<path d="M239.687 30.3183H237.349H235.03C234.472 30.3183 234.095 30.7322 234.095 31.2901V55.6736C234.095 56.2675 234.436 56.6274 235.03 56.6274H239.633C240.263 56.6274 240.622 56.2675 240.622 55.6736V48.5115H243.769C246.574 48.5115 248.84 47.6837 250.584 46.0462C252.329 44.3906 253.21 42.1952 253.21 39.4599C253.21 36.6886 252.329 34.4752 250.584 32.8197C248.84 31.1461 246.574 30.3183 243.769 30.3183H239.687ZM240.622 42.5911V36.2388H243.499C244.417 36.2388 245.19 36.5447 245.783 37.1565C246.395 37.7504 246.7 38.5062 246.7 39.4239C246.7 40.3417 246.395 41.0975 245.783 41.6913C245.19 42.2852 244.417 42.5911 243.499 42.5911H240.622Z" fill="#414141"/>
<path d="M272.955 30.3183H264.916C262.111 30.3183 259.827 31.1461 258.083 32.8197C256.339 34.4752 255.476 36.6886 255.476 39.4419C255.476 42.735 256.968 45.4523 259.54 46.9819L254.936 55.5297C254.649 56.0515 254.972 56.6274 255.548 56.6274H260.924C261.446 56.6274 261.68 56.4474 262.021 55.8176L265.869 48.4035H268.549V55.6736C268.549 56.2675 268.908 56.6274 269.538 56.6274H274.141C274.735 56.6274 275.076 56.2675 275.076 55.6736V31.2721C275.076 30.7142 274.699 30.3183 274.141 30.3183H272.955ZM265.186 42.771C264.269 42.771 263.496 42.4471 262.884 41.7993C262.291 41.1335 261.985 40.3417 261.985 39.4059C261.985 38.4702 262.291 37.7144 262.884 37.1205C263.478 36.5267 264.251 36.2208 265.186 36.2208H268.549V42.771H265.186Z" fill="#414141"/>
<path d="M296.457 30.3183C296.008 30.3183 295.774 30.5523 295.774 31.0201V40.1077H285.938V31.0201C285.938 30.5523 285.704 30.3183 285.254 30.3183H280.183C279.716 30.3183 279.482 30.5523 279.482 31.0201V55.9256C279.482 56.3934 279.716 56.6274 280.183 56.6274H285.254C285.704 56.6274 285.938 56.3934 285.938 55.9256V46.0282H295.774V55.9256C295.774 56.3934 296.008 56.6274 296.457 56.6274H301.546C301.996 56.6274 302.23 56.3934 302.23 55.9256V31.0201C302.23 30.5523 301.996 30.3183 301.546 30.3183H296.457Z" fill="#414141"/>
<path d="M305.431 43.5268C305.431 45.3983 305.79 47.1799 306.492 48.8714C307.211 50.545 308.182 52.0026 309.387 53.2083C310.61 54.414 312.066 55.3857 313.756 56.1055C315.447 56.8073 317.227 57.1672 319.115 57.1672C321.633 57.1672 323.934 56.5734 326.02 55.3677C328.124 54.162 329.761 52.5065 330.966 50.419C332.17 48.3316 332.782 46.0282 332.782 43.5268C332.782 41.6373 332.422 39.8558 331.703 38.1643C331.001 36.4547 330.03 34.9971 328.808 33.7914C327.603 32.5857 326.146 31.614 324.456 30.9122C322.784 30.1924 321.003 29.8324 319.115 29.8324C317.227 29.8324 315.447 30.1924 313.756 30.9122C312.066 31.614 310.61 32.5857 309.387 33.7914C308.182 34.9971 307.211 36.4547 306.492 38.1643C305.79 39.8558 305.431 41.6373 305.431 43.5268ZM311.94 43.5268C311.94 41.5114 312.642 39.8198 314.026 38.4342C315.411 37.0485 317.119 36.3467 319.115 36.3467C321.111 36.3467 322.802 37.0485 324.186 38.4342C325.571 39.8198 326.272 41.5114 326.272 43.5268C326.272 45.5243 325.571 47.1979 324.186 48.5835C322.802 49.9691 321.111 50.653 319.115 50.653C317.101 50.653 315.393 49.9691 314.008 48.5835C312.624 47.1979 311.94 45.5243 311.94 43.5268Z" fill="#414141"/>
<path d="M351.519 30.3003C351.016 30.3003 350.602 30.7502 350.602 31.2721V38.6861C350.602 40.0358 350.171 41.1155 349.326 41.9253C348.48 42.735 347.365 43.1489 345.945 43.1489C343.122 43.1489 341.449 41.4754 341.449 38.6501V31.2721C341.449 30.7142 341.018 30.3003 340.442 30.3003H335.821C335.335 30.3003 334.94 30.7502 334.94 31.2721V38.6681C334.94 41.9433 335.911 44.5706 337.853 46.55C339.795 48.5115 342.312 49.5013 345.405 49.5013C347.419 49.5013 349.308 48.6915 350.602 47.4498V55.6736C350.602 56.1955 350.998 56.6094 351.519 56.6094H356.177C356.698 56.6094 357.112 56.1775 357.112 55.6556V31.2721C357.112 30.7142 356.734 30.3003 356.231 30.3003H351.519Z" fill="#414141"/>
<path d="M377.09 42.717L385.452 31.56C385.884 30.9841 385.704 30.3723 385.038 30.3723H379.122C378.493 30.3723 378.151 30.4443 377.738 31.0021L370.922 40.1617H368.027V31.0201C368.027 30.5703 367.793 30.3363 367.344 30.3363H362.219C361.751 30.3363 361.518 30.5703 361.518 31.0201V55.9076C361.518 56.3754 361.751 56.6094 362.219 56.6094H367.344C367.793 56.6094 368.027 56.3754 368.027 55.9076V46.3161H371.731L378.349 56.2495C378.583 56.5194 378.906 56.6634 379.284 56.6634H385.254C385.884 56.6634 386.045 56.0335 385.686 55.5117L377.09 42.717Z" fill="#414141"/>
<path d="M402.841 31.1821C402.643 30.6602 402.158 30.3003 401.654 30.3003H397.86C397.356 30.3003 396.871 30.6242 396.637 31.1821L387.034 55.5657C386.801 56.1955 387.07 56.6274 387.736 56.6274H392.825C393.382 56.6274 393.85 56.2675 393.994 55.7636L395.162 52.3265H404.28L405.466 55.7816C405.664 56.2855 406.114 56.6454 406.617 56.6454H411.724C412.426 56.6454 412.659 56.1775 412.426 55.5837L402.841 31.1821ZM399.712 38.9201L402.427 46.8919H396.997L399.712 38.9201Z" fill="#414141"/>
</svg>
