<svg width="231" height="165" viewBox="0 0 231 165" fill="none" xmlns="http://www.w3.org/2000/svg">
<path d="M162.391 53.3008H63.0725C60.9898 53.3008 59.2968 55.0601 59.4782 57.1271C61.655 81.7374 84.6656 101.103 112.729 101.103C140.791 101.103 163.802 81.7374 165.979 57.1271C166.167 55.0601 164.474 53.3008 162.391 53.3008Z" fill="#414141"/>
<path d="M94.8044 16.476C93.6959 16.476 92.5941 15.9809 91.8752 15.0311C88.2472 10.2816 81.3541 7.32488 73.8899 7.32488C66.4258 7.32488 59.5326 10.2749 55.9047 15.0311C54.6752 16.6432 52.3641 16.9509 50.7516 15.7267C49.1325 14.5026 48.8234 12.2014 50.0529 10.596C55.1186 3.96012 64.0273 0 73.8899 0C83.7526 0 92.6612 3.96012 97.7337 10.596C98.9631 12.2081 98.6474 14.5026 97.0349 15.7267C96.3631 16.2351 95.5838 16.476 94.8044 16.476Z" fill="#414141"/>
<path d="M172.484 16.476C171.376 16.476 170.274 15.9809 169.555 15.0311C165.927 10.2816 159.034 7.32488 151.57 7.32488C144.105 7.32488 137.212 10.2749 133.584 15.0311C132.355 16.6432 130.044 16.9509 128.431 15.7267C126.812 14.5026 126.503 12.2014 127.733 10.596C132.798 3.96012 141.707 0 151.57 0C161.432 0 170.341 3.96012 175.413 10.596C176.643 12.2081 176.327 14.5026 174.715 15.7267C174.043 16.2351 173.263 16.476 172.484 16.476Z" fill="#414141"/>
<path d="M10.2938 112.134L8.84938 115.94C8.72173 116.254 8.25816 116.382 7.82818 116.228C6.84728 115.933 5.8328 115.405 4.77129 114.629C3.71649 113.866 2.88341 113.057 2.26531 112.207C1.33145 110.916 0.67976 109.512 0.316964 108.013C-0.0323943 106.501 -0.0861418 105.043 0.12213 103.612C0.343838 102.193 0.854439 100.822 1.64721 99.5109C2.44671 98.1998 3.47463 97.0827 4.76457 96.1595C6.04779 95.2364 7.43851 94.6076 8.93672 94.2664C10.4349 93.9253 11.9063 93.8718 13.3306 94.1126C14.775 94.3534 16.1456 94.8685 17.4624 95.6779C18.7927 96.4806 19.9281 97.5376 20.8619 98.8286C21.4599 99.6581 21.9638 100.708 22.3534 101.959C22.7565 103.21 22.9581 104.381 22.9514 105.478C22.9581 105.919 22.6423 106.254 22.293 106.267L18.2216 106.381C17.8319 106.381 17.5094 106.02 17.5094 105.505C17.5229 104.883 17.4423 104.254 17.2474 103.598C17.0526 102.943 16.804 102.401 16.495 101.973C15.4939 100.595 14.1637 99.7584 12.4975 99.4909C10.8448 99.2166 9.33982 99.5778 7.95583 100.568C6.58527 101.551 5.76562 102.862 5.51032 104.515C5.26845 106.153 5.64468 107.679 6.64573 109.057C6.95478 109.485 7.37804 109.886 7.92895 110.261C8.48658 110.642 9.03078 110.93 9.58841 111.11C10.1326 111.284 10.4349 111.732 10.2938 112.134Z" fill="#414141"/>
<path d="M26.5458 107.773C26.8817 107.405 27.3117 107.391 27.6745 107.726L38.1284 117.292C38.4979 117.626 38.5113 118.054 38.1754 118.415L35.8239 120.957C35.4679 121.345 35.0849 121.359 34.6952 121.004L27.6409 114.549L25.1685 117.225L30.5231 122.128C30.9262 122.496 30.9665 122.937 30.6037 123.325L28.6621 125.426C28.3262 125.794 27.876 125.787 27.4796 125.426L22.125 120.523L19.5855 123.279L26.6398 129.734C27.137 130.189 27.1773 130.777 26.754 131.226L24.5504 133.614C24.2212 133.968 23.7845 133.975 23.4217 133.641L12.7528 123.887C12.3833 123.553 12.3564 123.138 12.6923 122.77L26.5458 107.773Z" fill="#414141"/>
<path d="M49.1597 139.246C49.1328 140.31 48.8305 141.307 48.246 142.236C47.1374 144.009 45.6997 145.026 43.9327 145.293C42.1792 145.568 40.2645 145.073 38.2019 143.788L30.9393 139.28C30.6033 139.072 30.5429 138.805 30.7444 138.484L41.803 120.824C42.0045 120.503 42.2733 120.442 42.6025 120.65L49.3276 124.824C51.2961 126.048 52.5256 127.466 53.0228 129.085C53.5199 130.704 53.2378 132.37 52.1763 134.069C51.323 135.433 49.8315 136.33 48.3333 136.376C48.9111 137.233 49.1865 138.183 49.1597 139.246ZM40.7348 139.614C41.9239 140.357 43.1467 140.082 43.8723 138.925C44.5844 137.788 44.2687 136.617 43.0728 135.881L40.0226 133.988L37.6846 137.721L40.7348 139.614ZM44.1679 127.379L42.1927 130.53L44.7121 132.095C45.7266 132.724 46.7343 132.503 47.339 131.533C47.9436 130.563 47.6951 129.573 46.6806 128.945L44.1679 127.379Z" fill="#414141"/>
<path d="M59.4276 131.506C59.6157 131.045 60.0054 130.877 60.4689 131.065L73.6438 136.329C74.1074 136.516 74.2753 136.904 74.0872 137.366L72.7973 140.57C72.6024 141.059 72.2464 141.206 71.7559 141.012L62.8607 137.46L61.5036 140.831L68.2556 143.527C68.7595 143.728 68.9543 144.129 68.7595 144.617L67.6913 147.266C67.5031 147.728 67.0866 147.882 66.5827 147.681L59.8307 144.985L58.4333 148.457L67.3285 152.009C67.96 152.263 68.2019 152.792 67.9667 153.367L66.7507 156.377C66.5693 156.825 66.1662 156.986 65.7026 156.799L52.259 151.427C51.7954 151.24 51.6208 150.865 51.8089 150.404L59.4276 131.506Z" fill="#414141"/>
<path d="M86.543 139.573C88.8407 140.075 90.5539 141.159 91.6826 142.838C92.8113 144.504 93.1405 146.464 92.6366 148.725C92.1461 150.959 91.0242 152.591 89.2975 153.628C87.5709 154.651 85.5688 154.919 83.2644 154.417L80.6845 153.855L79.3945 159.695C79.287 160.177 78.931 160.411 78.4136 160.297L74.6379 159.474C74.1542 159.367 73.9392 159.013 74.0399 158.531L78.4271 138.644C78.5279 138.189 78.9108 137.921 79.3677 138.021L81.269 138.436L83.1837 138.858L86.543 139.573ZM84.1109 149.534C84.8633 149.701 85.5486 149.587 86.1466 149.213C86.7579 148.838 87.1409 148.276 87.3089 147.527C87.4768 146.778 87.3626 146.109 86.9662 145.514C86.59 144.905 86.0122 144.517 85.2597 144.356L82.9016 143.841L81.7594 149.026L84.1109 149.534Z" fill="#414141"/>
<path d="M112.89 142.51C113.361 142.537 113.656 142.885 113.629 143.347L112.501 163.696C112.474 164.191 112.172 164.478 111.674 164.445L107.818 164.231C107.287 164.204 107.005 163.883 107.032 163.388L107.368 157.327L105.124 157.207L101.556 163.214C101.241 163.723 101.039 163.863 100.602 163.836L96.0943 163.589C95.6106 163.562 95.3688 163.067 95.6308 162.646L99.8835 155.729C97.8008 154.337 96.6721 152.003 96.8267 149.253C96.9543 146.959 97.7807 145.153 99.3192 143.848C100.858 142.531 102.813 141.949 105.164 142.076L111.903 142.444L112.89 142.51ZM107.63 152.632L107.932 147.166L105.117 147.012C104.331 146.972 103.673 147.186 103.149 147.655C102.625 148.123 102.336 148.738 102.289 149.521C102.248 150.304 102.463 150.973 102.934 151.555C103.417 152.123 104.049 152.431 104.815 152.471L107.63 152.632Z" fill="#414141"/>
<path d="M136.741 140.35C137.117 140.303 137.332 140.477 137.379 140.865L139.865 161.522C139.912 161.91 139.737 162.124 139.368 162.171L135.129 162.679C134.752 162.726 134.537 162.552 134.49 162.164L133.503 153.956L125.306 154.933L126.294 163.141C126.341 163.529 126.166 163.743 125.797 163.789L121.571 164.291C121.181 164.338 120.966 164.164 120.919 163.776L118.433 143.119C118.386 142.731 118.561 142.517 118.951 142.47L123.176 141.969C123.553 141.922 123.768 142.096 123.815 142.484L124.722 150.023L132.918 149.046L132.011 141.507C131.964 141.119 132.139 140.905 132.508 140.858L136.741 140.35Z" fill="#414141"/>
<path d="M143.646 145.675C143.767 144.13 144.157 142.718 144.802 141.447C145.46 140.169 146.367 139.019 147.529 138.015C148.685 136.999 150.009 136.249 151.513 135.754C153.018 135.259 154.53 135.079 156.055 135.213C157.587 135.326 159.005 135.714 160.281 136.356C161.571 136.992 162.733 137.895 163.741 139.066C164.762 140.216 165.515 141.534 166.012 143.033C166.67 145.019 166.791 147.006 166.381 148.973C165.972 150.946 165.105 152.685 163.741 154.197C162.397 155.702 160.718 156.773 158.709 157.435C157.204 157.93 155.692 158.11 154.161 157.997C152.622 157.87 151.204 157.482 149.914 156.846C148.638 156.204 147.482 155.308 146.468 154.164C145.467 153.006 144.708 151.689 144.217 150.204C143.713 148.705 143.532 147.2 143.646 145.675ZM152.38 151.963C153.851 152.699 155.39 152.792 156.996 152.264C158.588 151.742 159.75 150.752 160.496 149.294C161.235 147.829 161.356 146.324 160.825 144.738C160.294 143.14 159.293 141.982 157.822 141.246C156.351 140.511 154.819 140.397 153.233 140.919C151.641 141.44 150.465 142.444 149.726 143.909C148.987 145.374 148.873 146.899 149.404 148.491C149.928 150.083 150.916 151.227 152.38 151.963Z" fill="#414141"/>
<path d="M180.276 122.489C180.639 122.282 181.089 122.422 181.325 122.824L191.537 140.457C191.758 140.832 191.637 141.32 191.254 141.534L187.868 143.474C187.492 143.695 187.029 143.554 186.807 143.179L183.36 137.233C182.937 138.671 181.902 140.042 180.444 140.885C178.194 142.176 175.95 142.511 173.719 141.902C171.482 141.28 169.675 139.788 168.304 137.42L165.207 132.068C164.985 131.694 165.086 131.199 165.442 130.998L168.801 129.072C169.218 128.831 169.708 128.951 169.937 129.353L173.027 134.691C174.21 136.731 176.124 137.246 178.18 136.069C179.215 135.473 179.847 134.711 180.122 133.774C180.397 132.838 180.256 131.874 179.692 130.898L176.588 125.533C176.366 125.158 176.481 124.657 176.85 124.449L180.276 122.489Z" fill="#414141"/>
<path d="M213.789 121.84C214.306 121.967 214.555 122.448 214.165 122.796L210.43 126.121C210.194 126.328 209.912 126.422 209.61 126.382L199.915 123.88L197.597 125.94L202.959 131.914C203.221 132.208 203.207 132.482 202.925 132.73L199.72 135.586C199.425 135.847 199.149 135.834 198.887 135.54L184.98 120.04C184.732 119.759 184.745 119.485 185.034 119.224L188.239 116.368C188.521 116.12 188.796 116.134 189.052 116.415L194.158 122.107L195.972 120.495L195.118 110.996C195.065 110.421 195.239 110.187 195.636 109.832L199.337 106.541C199.754 106.173 200.211 106.454 200.258 107.049L201.259 118.656L213.789 121.84Z" fill="#414141"/>
<path d="M230.442 99.6845C230.959 99.8116 231.168 100.193 230.832 100.675L228.366 104.166C228.124 104.508 227.661 104.648 227.217 104.541L224.275 103.691L219.874 109.919L221.668 112.368C221.943 112.709 221.963 113.204 221.695 113.578L219.236 117.057C218.913 117.512 218.49 117.492 218.167 117.023L206.081 98.748C205.812 98.3199 205.826 97.8316 206.068 97.4904L207.902 94.8949C208.144 94.5538 208.627 94.3932 209.077 94.5069L230.442 99.6845ZM217.032 106.053L219.652 102.34L212.873 100.367L217.032 106.053Z" fill="#414141"/>
</svg>
